# xmcd
#
# Track frame offsets: 
#        150
#        19125
#        37633
#        57474
#        77712
#        99441
#        120359
#        136866
#        156786
#        177673
#        196191
#        209989
#        216772
#        234286
#        267657
#
# Disc length: 3836 seconds
#
# Revision: 3
# Processed by: cddbd v1.4PL0 Copyright (c) Steve Scherf et al.
# Submitted via: ExactAudioCopy v0.90b4
#
DISCID=cf0efa0f
DTITLE=Shania Twain - The Woman in me
DYEAR=1995
DGENRE=
TTITLE0=Home ain't where his heart is
TTITLE1=Any Man Of Mine
TTITLE2=Whose Bed Have Your Boots Been Under
TTITLE3=I'm Outta Here
TTITLE4=The Woman In Me
TTITLE5=Is There Life After Love
TTITLE6=If It Don't Take Two
TTITLE7=You Win My Love
TTITLE8=Raining On Our Love
TTITLE9=Leaving Is The Only Way Out
TTITLE10=No One Needs To Know
TTITLE11=God Bless The Child
TTITLE12=You Win My Love (remix)
TTITLE13=Medley
TTITLE14=I'm Outta Here (remix)
EXTD=
EXTT0=
EXTT1=
EXTT2=
EXTT3=
EXTT4=
EXTT5=
EXTT6=
EXTT7=
EXTT8=
EXTT9=
EXTT10=
EXTT11=
EXTT12=
EXTT13=
EXTT14=
PLAYORDER=
